<?xml version="1.0" encoding="UTF-8" standalone="no"?>
<!-- Created with Inkscape (http://www.inkscape.org/) -->
<svg
   xmlns:dc="http://purl.org/dc/elements/1.1/"
   xmlns:cc="http://creativecommons.org/ns#"
   xmlns:rdf="http://www.w3.org/1999/02/22-rdf-syntax-ns#"
   xmlns:svg="http://www.w3.org/2000/svg"
   xmlns="http://www.w3.org/2000/svg"
   xmlns:sodipodi="http://sodipodi.sourceforge.net/DTD/sodipodi-0.dtd"
   xmlns:inkscape="http://www.inkscape.org/namespaces/inkscape"
   width="744.09448819"
   height="1052.3622047"
   id="svg5350"
   sodipodi:version="0.32"
   inkscape:version="0.46"
   sodipodi:docname="seal_worksheet.svg"
   inkscape:output_extension="org.inkscape.output.svg.inkscape">
  <defs
     id="defs5352">
    <inkscape:perspective
       sodipodi:type="inkscape:persp3d"
       inkscape:vp_x="0 : 526.18109 : 1"
       inkscape:vp_y="0 : 1000 : 0"
       inkscape:vp_z="744.09448 : 526.18109 : 1"
       inkscape:persp3d-origin="372.04724 : 350.78739 : 1"
       id="perspective5358" />
    <filter
       inkscape:collect="always"
       id="filter6274">
      <feGaussianBlur
         inkscape:collect="always"
         stdDeviation="9.925987"
         id="feGaussianBlur6276" />
    </filter>
  </defs>
  <sodipodi:namedview
     id="base"
     pagecolor="#000000"
     bordercolor="#666666"
     borderopacity="1.0"
     gridtolerance="10000"
     guidetolerance="10"
     objecttolerance="10"
     inkscape:pageopacity="1"
     inkscape:pageshadow="2"
     inkscape:zoom="0.23467107"
     inkscape:cx="19.987069"
     inkscape:cy="727.87304"
     inkscape:document-units="px"
     inkscape:current-layer="layer1"
     showgrid="false"
     inkscape:window-width="640"
     inkscape:window-height="725"
     inkscape:window-x="517"
     inkscape:window-y="177" />
  <metadata
     id="metadata5355">
    <rdf:RDF>
      <cc:Work
         rdf:about="">
        <dc:format>image/svg+xml</dc:format>
        <dc:type
           rdf:resource="http://purl.org/dc/dcmitype/StillImage" />
      </cc:Work>
    </rdf:RDF>
  </metadata>
  <g
     inkscape:label="Layer 1"
     inkscape:groupmode="layer"
     id="layer1">
    <g
       id="g6308">
      <g
         transform="translate(-54.285714,-337.14286)"
         id="g6278">
        <path
           sodipodi:type="star"
           style="fill:#ffffff;fill-opacity:1;stroke:#ffffff;stroke-width:3.5;stroke-miterlimit:4;stroke-dasharray:none;stroke-opacity:1;filter:url(#filter6274)"
           id="path6138"
           sodipodi:sides="20"
           sodipodi:cx="211.42857"
           sodipodi:cy="358.07648"
           sodipodi:r1="263.43106"
           sodipodi:r2="208.11053"
           sodipodi:arg1="0.63916274"
           sodipodi:arg2="0.79624237"
           inkscape:flatsided="false"
           inkscape:rounded="0"
           inkscape:randomized="0"
           d="M 422.85715,515.21934 L 356.98053,506.81996 L 363.94929,572.86325 L 303.89245,544.51796 L 290.11163,609.48232 L 241.75335,563.96577 L 208.57193,621.49205 L 176.64586,563.25971 L 127.31185,607.71682 L 114.94314,542.46888 L 54.285711,569.50506 L 62.685093,503.62843 L -3.3581945,510.59719 L 24.987089,450.54035 L -39.977274,436.75953 L 5.5392774,388.40126 L -51.986998,355.21983 L 6.2453441,323.29377 L -38.21177,273.95976 L 27.036175,261.59105 L -6.2713268e-06,200.93361 L 65.876619,209.333 L 58.90786,143.28971 L 118.9647,171.63499 L 132.74552,106.67063 L 181.10379,152.18718 L 214.28522,94.660905 L 246.21128,152.89325 L 295.54529,108.43613 L 307.914,173.68408 L 368.57144,146.6479 L 360.17205,212.52452 L 426.21534,205.55576 L 397.87006,265.61261 L 462.83442,279.39342 L 417.31787,327.7517 L 474.84415,360.93312 L 416.6118,392.85919 L 461.06892,442.1932 L 395.82097,454.56191 L 422.85715,515.21934 z"
           transform="translate(162.85714,134.28571)" />
        <path
           sodipodi:type="star"
           style="fill:#000000;fill-opacity:1;stroke:none;stroke-width:3.5;stroke-miterlimit:4;stroke-dasharray:none;stroke-opacity:1"
           id="path5364"
           sodipodi:sides="20"
           sodipodi:cx="211.42857"
           sodipodi:cy="358.07648"
           sodipodi:r1="263.43106"
           sodipodi:r2="208.11053"
           sodipodi:arg1="0.63916274"
           sodipodi:arg2="0.79624237"
           inkscape:flatsided="false"
           inkscape:rounded="0"
           inkscape:randomized="0"
           d="M 422.85715,515.21934 L 356.98053,506.81996 L 363.94929,572.86325 L 303.89245,544.51796 L 290.11163,609.48232 L 241.75335,563.96577 L 208.57193,621.49205 L 176.64586,563.25971 L 127.31185,607.71682 L 114.94314,542.46888 L 54.285711,569.50506 L 62.685093,503.62843 L -3.3581945,510.59719 L 24.987089,450.54035 L -39.977274,436.75953 L 5.5392774,388.40126 L -51.986998,355.21983 L 6.2453441,323.29377 L -38.21177,273.95976 L 27.036175,261.59105 L -6.2713268e-06,200.93361 L 65.876619,209.333 L 58.90786,143.28971 L 118.9647,171.63499 L 132.74552,106.67063 L 181.10379,152.18718 L 214.28522,94.660905 L 246.21128,152.89325 L 295.54529,108.43613 L 307.914,173.68408 L 368.57144,146.6479 L 360.17205,212.52452 L 426.21534,205.55576 L 397.87006,265.61261 L 462.83442,279.39342 L 417.31787,327.7517 L 474.84415,360.93312 L 416.6118,392.85919 L 461.06892,442.1932 L 395.82097,454.56191 L 422.85715,515.21934 z"
           transform="translate(162.85714,134.28571)" />
      </g>
      <text
         sodipodi:linespacing="100%"
         id="text6282"
         y="134.11932"
         x="307.40665"
         style="font-size:100px;font-style:oblique;font-variant:normal;font-weight:bold;font-stretch:normal;text-align:center;line-height:100%;writing-mode:lr-tb;text-anchor:middle;fill:#ffffff;fill-opacity:1;stroke:none;stroke-width:1px;stroke-linecap:butt;stroke-linejoin:miter;stroke-opacity:1;font-family:URW Gothic L;-inkscape-font-specification:URW Gothic L Semi-Bold Oblique"
         xml:space="preserve"><tspan
           y="134.11932"
           x="307.40665"
           id="tspan6284"
           sodipodi:role="line">Buy the</tspan><tspan
           id="tspan6286"
           y="234.11932"
           x="307.40665"
           sodipodi:role="line">Posters!</tspan></text>
    </g>
    <g
       id="g3213">
      <path
         transform="translate(142.78384,404.87203)"
         d="M 422.85715,515.21934 L 356.98053,506.81996 L 363.94929,572.86325 L 303.89245,544.51796 L 290.11163,609.48232 L 241.75335,563.96577 L 208.57193,621.49205 L 176.64586,563.25971 L 127.31185,607.71682 L 114.94314,542.46888 L 54.285711,569.50506 L 62.685093,503.62843 L -3.3581945,510.59719 L 24.987089,450.54035 L -39.977274,436.75953 L 5.5392774,388.40126 L -51.986998,355.21983 L 6.2453441,323.29377 L -38.21177,273.95976 L 27.036175,261.59105 L -6.2713268e-06,200.93361 L 65.876619,209.333 L 58.90786,143.28971 L 118.9647,171.63499 L 132.74552,106.67063 L 181.10379,152.18718 L 214.28522,94.660905 L 246.21128,152.89325 L 295.54529,108.43613 L 307.914,173.68408 L 368.57144,146.6479 L 360.17205,212.52452 L 426.21534,205.55576 L 397.87006,265.61261 L 462.83442,279.39342 L 417.31787,327.7517 L 474.84415,360.93312 L 416.6118,392.85919 L 461.06892,442.1932 L 395.82097,454.56191 L 422.85715,515.21934 z"
         inkscape:randomized="0"
         inkscape:rounded="0"
         inkscape:flatsided="false"
         sodipodi:arg2="0.79624237"
         sodipodi:arg1="0.63916274"
         sodipodi:r2="208.11053"
         sodipodi:r1="263.43106"
         sodipodi:cy="358.07648"
         sodipodi:cx="211.42857"
         sodipodi:sides="20"
         id="path6292"
         style="fill:#ffffff;fill-opacity:1;stroke:#ffffff;stroke-width:3.5;stroke-miterlimit:4;stroke-dasharray:none;stroke-opacity:1;filter:url(#filter6274)"
         sodipodi:type="star" />
      <path
         transform="translate(142.78384,404.87203)"
         d="M 422.85715,515.21934 L 356.98053,506.81996 L 363.94929,572.86325 L 303.89245,544.51796 L 290.11163,609.48232 L 241.75335,563.96577 L 208.57193,621.49205 L 176.64586,563.25971 L 127.31185,607.71682 L 114.94314,542.46888 L 54.285711,569.50506 L 62.685093,503.62843 L -3.3581945,510.59719 L 24.987089,450.54035 L -39.977274,436.75953 L 5.5392774,388.40126 L -51.986998,355.21983 L 6.2453441,323.29377 L -38.21177,273.95976 L 27.036175,261.59105 L -6.2713268e-06,200.93361 L 65.876619,209.333 L 58.90786,143.28971 L 118.9647,171.63499 L 132.74552,106.67063 L 181.10379,152.18718 L 214.28522,94.660905 L 246.21128,152.89325 L 295.54529,108.43613 L 307.914,173.68408 L 368.57144,146.6479 L 360.17205,212.52452 L 426.21534,205.55576 L 397.87006,265.61261 L 462.83442,279.39342 L 417.31787,327.7517 L 474.84415,360.93312 L 416.6118,392.85919 L 461.06892,442.1932 L 395.82097,454.56191 L 422.85715,515.21934 z"
         inkscape:randomized="0"
         inkscape:rounded="0"
         inkscape:flatsided="false"
         sodipodi:arg2="0.79624237"
         sodipodi:arg1="0.63916274"
         sodipodi:r2="208.11053"
         sodipodi:r1="263.43106"
         sodipodi:cy="358.07648"
         sodipodi:cx="211.42857"
         sodipodi:sides="20"
         id="path6294"
         style="fill:#000000;fill-opacity:1;stroke:none;stroke-width:3.5;stroke-miterlimit:4;stroke-dasharray:none;stroke-opacity:1"
         sodipodi:type="star" />
      <text
         sodipodi:linespacing="100%"
         id="text6296"
         y="696.97852"
         x="339.92984"
         style="font-size:72px;font-style:oblique;font-variant:normal;font-weight:bold;font-stretch:normal;text-align:center;line-height:100%;writing-mode:lr-tb;text-anchor:middle;fill:#ffffff;fill-opacity:1;stroke:none;stroke-width:1px;stroke-linecap:butt;stroke-linejoin:miter;stroke-opacity:1;font-family:URW Gothic L;-inkscape-font-specification:URW Gothic L Semi-Bold Oblique"
         xml:space="preserve"><tspan
           id="tspan6300"
           y="696.97852"
           x="339.92984"
           sodipodi:role="line">Produce</tspan><tspan
           id="tspan6304"
           y="768.97852"
           x="339.92984"
           sodipodi:role="line">Your Own</tspan><tspan
           id="tspan6306"
           y="840.97852"
           x="339.92984"
           sodipodi:role="line">Movie!</tspan></text>
      <text
         sodipodi:linespacing="100%"
         id="text2405"
         y="919.13446"
         x="219.07684"
         style="font-size:72px;font-style:normal;font-variant:normal;font-weight:normal;font-stretch:normal;text-align:start;line-height:100%;writing-mode:lr-tb;text-anchor:start;fill:#ffffff;fill-opacity:1;stroke:none;stroke-width:1px;stroke-linecap:butt;stroke-linejoin:miter;stroke-opacity:1;font-family:URW Gothic L;-inkscape-font-specification:URW Gothic L"
         xml:space="preserve"><tspan
           y="919.13446"
           x="219.07684"
           id="tspan2407"
           sodipodi:role="line">(poster)</tspan></text>
    </g>
    <text
       xml:space="preserve"
       style="font-size:72px;font-style:normal;font-weight:normal;fill:#ffffff;fill-opacity:1;stroke:none;stroke-width:1px;stroke-linecap:butt;stroke-linejoin:miter;stroke-opacity:1;font-family:Bitstream Vera Sans"
       x="-843.73419"
       y="-566.92566"
       id="text2431"><tspan
         sodipodi:role="line"
         id="tspan2433"
         x="-843.73419"
         y="-566.92566">Note: if you just export the seal selections, you end up</tspan><tspan
         sodipodi:role="line"
         x="-843.73419"
         y="-476.92563"
         id="tspan3205">cutting off part of the glow. It's necessary to start with</tspan><tspan
         sodipodi:role="line"
         x="-843.73419"
         y="-386.92563"
         id="tspan3207">'Selection' in the import, but then go to custom (which</tspan><tspan
         sodipodi:role="line"
         x="-843.73419"
         y="-296.92563"
         id="tspan3209">should start with the same values as 'Selection'). Expand</tspan><tspan
         sodipodi:role="line"
         x="-843.73419"
         y="-206.92564"
         id="tspan3211">the area by 12 units in all *4* directions.</tspan></text>
  </g>
</svg>
