<?xml version="1.0" encoding="UTF-8" standalone="no"?>
<svg
   xmlns:dc="http://purl.org/dc/elements/1.1/"
   xmlns:cc="http://creativecommons.org/ns#"
   xmlns:rdf="http://www.w3.org/1999/02/22-rdf-syntax-ns#"
   xmlns:svg="http://www.w3.org/2000/svg"
   xmlns="http://www.w3.org/2000/svg"
   xmlns:sodipodi="http://sodipodi.sourceforge.net/DTD/sodipodi-0.dtd"
   xmlns:inkscape="http://www.inkscape.org/namespaces/inkscape"
   version="1.1"
   baseProfile="full"
   id="body"
   width="8in"
   height="8in"
   viewBox="0 0 1 1"
   preserveAspectRatio="none"
   sodipodi:version="0.32"
   inkscape:version="0.46"
   sodipodi:docname="twitter_newbird_white.svg"
   inkscape:output_extension="org.inkscape.output.svg.inkscape">
  <metadata
     id="metadata14525">
    <rdf:RDF>
      <cc:Work
         rdf:about="">
        <dc:format>image/svg+xml</dc:format>
        <dc:type
           rdf:resource="http://purl.org/dc/dcmitype/StillImage" />
      </cc:Work>
    </rdf:RDF>
  </metadata>
  <defs
     id="defs14523">
    <inkscape:perspective
       sodipodi:type="inkscape:persp3d"
       inkscape:vp_x="0 : 360 : 1"
       inkscape:vp_y="0 : 1000 : 0"
       inkscape:vp_z="720 : 360 : 1"
       inkscape:persp3d-origin="360 : 240 : 1"
       id="perspective14527" />
  </defs>
  <sodipodi:namedview
     inkscape:window-height="724"
     inkscape:window-width="640"
     inkscape:pageshadow="2"
     inkscape:pageopacity="1"
     guidetolerance="10.0"
     gridtolerance="10.0"
     objecttolerance="10.0"
     borderopacity="1.0"
     bordercolor="#666666"
     pagecolor="#000000"
     id="base"
     showgrid="false"
     inkscape:zoom="0.73611111"
     inkscape:cx="360"
     inkscape:cy="33.962264"
     inkscape:window-x="974"
     inkscape:window-y="297"
     inkscape:current-layer="body" />
  <title
     id="title14514">SVG drawing</title>
  <desc
     id="desc14516">This was produced by version 4.2 of GNU libplot, a free library for exporting 2-D vector graphics.</desc>
  <g
     id="content"
     transform="matrix(1.7361e-3,0,0,-1.7361e-3,0.223467,0.7497641)"
     xml:space="preserve"
     stroke-miterlimit="10.433"
     fill-rule="even-odd"
     font-style="normal"
     font-variant="normal"
     font-weight="normal"
     font-stretch="normal"
     font-size-adjust="none"
     letter-spacing="normal"
     word-spacing="normal"
     style="font-style:normal;font-variant:normal;font-weight:normal;font-stretch:normal;letter-spacing:normal;word-spacing:normal;text-anchor:start;fill:none;fill-opacity:1;stroke:#000000;stroke-linecap:butt;stroke-linejoin:miter;stroke-miterlimit:10.43299961;stroke-dasharray:none;stroke-dashoffset:0;stroke-opacity:1"
     inkscape:export-filename="/home/zane/playground/trunk/personal/rockenbaugh/projects/33third_productions/site/productionnotebook/noah/images/twitter_bird-140x97.png"
     inkscape:export-xdpi="47.830002"
     inkscape:export-ydpi="47.830002">
<path
   d="M 210.73,78.289 L 210.03,78.178 L 209.3,78.082 L 208.56,78 L 207.81,77.933 L 207.04,77.879 L 206.26,77.839 L 204.67,77.8 L 203.05,77.812 L 201.42,77.874 L 199.78,77.983 L 198.15,78.136 L 196.54,78.332 L 194.96,78.569 L 193.43,78.844 L 192.68,78.995 L 191.95,79.154 L 191.24,79.322 L 190.54,79.498 L 189.87,79.683 L 189.22,79.874 L 188.59,80.073 L 187.98,80.279 L 187.41,80.492 L 186.86,80.711 C 198.7,81.691 206.72,87.074 209.81,94.379 C 205.54,91.754 192.28,88.891 184.97,91.617 C 184.6,93.34 184.21,94.973 183.81,96.453 C 178.24,116.95 159.15,133.46 139.15,131.46 C 140.76,132.12 142.4,132.73 144.05,133.28 C 146.24,134.07 159.16,136.18 157.13,140.73 C 155.41,144.75 139.62,137.71 136.65,136.79 C 140.57,138.26 147.06,140.8 147.75,145.31 C 141.75,144.49 135.84,141.65 131.29,137.51 C 132.93,139.28 134.18,141.44 134.45,143.77 C 118.41,133.51 109.04,112.85 101.46,92.785 C 95.516,98.566 90.227,103.11 85.5,105.64 C 72.227,112.76 56.352,120.19 31.438,129.46 C 30.672,121.21 35.512,110.23 49.453,102.94 C 46.434,103.35 40.91,102.43 36.5,101.38 C 38.297,91.922 44.176,84.133 60.094,80.371 C 52.82,79.895 49.055,78.227 45.652,74.664 C 48.965,68.086 57.059,60.352 71.594,61.941 C 55.418,54.961 64.996,42.035 78.16,43.965 C 55.719,20.75 20.324,22.469 0,41.871 C 53.059,-30.504 168.41,-0.92188 185.59,68.785 C 198.48,68.68 206.04,73.246 210.73,78.289 z"
   id="path14520"
   style="fill:#ffffff;fill-rule:nonzero;stroke:#ffffff;stroke-width:0" />
</g></svg>
